<?xml version="1.0" encoding="UTF-8"?>
<svg xmlns="http://www.w3.org/2000/svg" width="16px" height="16px" viewBox="0 0 16 16"><path d="M10.35,3.72 L11.78,4.9 L12.57,3.94 L11.15,2.76 Z" fill="#222222"/><path d="M11.64,4.74 L12.59,6.33 L13.66,5.69 L12.71,4.1 Z" fill="#222222"/><path d="M12.51,6.13 L12.88,7.95 L14.11,7.69 L13.74,5.88 Z" fill="#222222"/><path d="M12.88,7.74 L12.63,9.57 L13.86,9.74 L14.12,7.91 Z" fill="#222222"/><path d="M12.69,9.37 L11.84,11.01 L12.96,11.59 L13.8,9.94 Z" fill="#222222"/><path d="M11.97,10.85 L10.63,12.12 L11.49,13.03 L12.83,11.75 Z" fill="#222222"/><path d="M10.8,12 L9.11,12.76 L9.62,13.9 L11.31,13.14 Z" fill="#222222"/><path d="M9.31,12.7 L7.47,12.86 L7.57,14.1 L9.42,13.95 Z" fill="#222222"/><path d="M7.68,12.87 L5.89,12.41 L5.57,13.61 L7.36,14.08 Z" fill="#222222"/><path d="M6.08,12.49 L4.55,11.46 L3.85,12.49 L5.38,13.53 Z" fill="#222222"/><path d="M4.7,11.6 L3.6,10.11 L2.59,10.86 L3.69,12.35 Z" fill="#222222"/><path d="M3.69,10.3 L3.14,8.53 L1.95,8.9 L2.5,10.67 Z" fill="#222222"/><path d="M3.17,8.74 L3.24,6.89 L1.99,6.84 L1.92,8.69 Z" fill="#222222"/><path d="M3.2,7.1 L3.88,5.38 L2.72,4.92 L2.04,6.64 Z" fill="#222222"/><path d="M3.77,5.56 L4.98,4.16 L4.04,3.34 L2.83,4.74 Z" fill="#222222"/><path d="M4.82,4.29 L6.43,3.37 L5.81,2.29 L4.2,3.21 Z" fill="#222222"/><path d="M11.55,4.42 a0.62,0.62 0 1,0 1.25,0 a0.62,0.62 0 1,0 -1.25,0 Z" fill="#222222"/><path d="M12.5,6.01 a0.62,0.62 0 1,0 1.25,0 a0.62,0.62 0 1,0 -1.25,0 Z" fill="#222222"/><path d="M12.87,7.82 a0.62,0.62 0 1,0 1.25,0 a0.62,0.62 0 1,0 -1.25,0 Z" fill="#222222"/><path d="M12.62,9.65 a0.62,0.62 0 1,0 1.25,0 a0.62,0.62 0 1,0 -1.25,0 Z" fill="#222222"/><path d="M11.77,11.3 a0.62,0.62 0 1,0 1.25,0 a0.62,0.62 0 1,0 -1.25,0 Z" fill="#222222"/><path d="M10.43,12.57 a0.62,0.62 0 1,0 1.25,0 a0.62,0.62 0 1,0 -1.25,0 Z" fill="#222222"/><path d="M8.74,13.33 a0.62,0.62 0 1,0 1.25,0 a0.62,0.62 0 1,0 -1.25,0 Z" fill="#222222"/><path d="M6.9,13.48 a0.62,0.62 0 1,0 1.25,0 a0.62,0.62 0 1,0 -1.25,0 Z" fill="#222222"/><path d="M5.11,13.01 a0.62,0.62 0 1,0 1.25,0 a0.62,0.62 0 1,0 -1.25,0 Z" fill="#222222"/><path d="M3.57,11.97 a0.62,0.62 0 1,0 1.25,0 a0.62,0.62 0 1,0 -1.25,0 Z" fill="#222222"/><path d="M2.47,10.49 a0.62,0.62 0 1,0 1.25,0 a0.62,0.62 0 1,0 -1.25,0 Z" fill="#222222"/><path d="M1.92,8.72 a0.62,0.62 0 1,0 1.25,0 a0.62,0.62 0 1,0 -1.25,0 Z" fill="#222222"/><path d="M1.99,6.87 a0.62,0.62 0 1,0 1.25,0 a0.62,0.62 0 1,0 -1.25,0 Z" fill="#222222"/><path d="M2.67,5.15 a0.62,0.62 0 1,0 1.25,0 a0.62,0.62 0 1,0 -1.25,0 Z" fill="#222222"/><path d="M3.89,3.75 a0.62,0.62 0 1,0 1.25,0 a0.62,0.62 0 1,0 -1.25,0 Z" fill="#222222"/><path d="M10.12,3.24 a0.62,0.62 0 1,0 1.25,0 a0.62,0.62 0 1,0 -1.25,0 Z" fill="#222222"/><path d="M5.49,2.83 a0.62,0.62 0 1,0 1.25,0 a0.62,0.62 0 1,0 -1.25,0 Z" fill="#222222"/><path d="M10.5,1 L14.5,4 L10.5,7 Z" fill="#222222"/></svg>
