<?xml version="1.0" encoding="UTF-8"?>
<svg xmlns="http://www.w3.org/2000/svg" width="16px" height="16px" viewBox="0 0 16 16"><path d="M3,14.38 L13,14.38 L13,12.62 L3,12.62 Z" fill="#222222"/><path d="M2.12,13.5 a0.88,0.88 0 1,0 1.75,0 a0.88,0.88 0 1,0 -1.75,0 Z" fill="#222222"/><path d="M12.12,13.5 a0.88,0.88 0 1,0 1.75,0 a0.88,0.88 0 1,0 -1.75,0 Z" fill="#222222"/><path d="M7.12,5 L7.12,11 L8.88,11 L8.88,5 Z" fill="#222222"/><path d="M7.12,5 a0.88,0.88 0 1,0 1.75,0 a0.88,0.88 0 1,0 -1.75,0 Z" fill="#222222"/><path d="M7.12,11 a0.88,0.88 0 1,0 1.75,0 a0.88,0.88 0 1,0 -1.75,0 Z" fill="#222222"/><path d="M4.5,6.5 L8,2.5 L11.5,6.5 Z" fill="#222222"/></svg>
